# xmcd
#
# Track frame offsets:
#	150
#	18439
#	37965
#	51518
#	67303
#	82227
#	99864
#	116858
#	134165
#	147194
#	165900
#
# Disc length: 2483 seconds
#
# Revision: 1
# Processed by: cddbd v1.5.2PL0 Copyright (c) Steve Scherf et al.
# Submitted via: audiograbber 1.83.01
#
DISCID=a009b10b
DTITLE=Björkman, Christer - Christer Björkman
DYEAR=1999
DGENRE=Pop
TTITLE0=Kom låt oss älska nu
TTITLE1=Gå bara gå!
TTITLE2=Välkommen hem
TTITLE3=Det som vi har
TTITLE4=Döda mig i morgon
TTITLE5=Allt det du sa
TTITLE6=Flyg iväg
TTITLE7=Lång väg att vandra
TTITLE8=Vem hade vågat?
TTITLE9=Visa mig
TTITLE10=Så förbannat vackert
EXTD=Track 3 from Melodifestivalen 1999 [Swedish selection for Eurovision Song 
EXTD=Contest/Melodie Grand Prix 1999].
EXTT0=
EXTT1=
EXTT2=
EXTT3=
EXTT4=
EXTT5=
EXTT6=
EXTT7=
EXTT8=
EXTT9=
EXTT10=
PLAYORDER=
